<svg width="46" height="104" viewBox="0 0 46 104" fill="none" xmlns="http://www.w3.org/2000/svg">
<path d="M2.42382 96.5052C2.71395 96.2972 2.92404 96.1673 3.11589 96.0102C4.19505 95.1228 5.26037 94.209 6.34551 93.3407C6.77442 92.9974 7.231 92.707 7.69514 92.454C8.1885 92.1875 8.50806 92.3049 8.62925 92.7055C8.78287 93.214 8.46481 93.4842 8.20299 93.7693C8.16469 93.8116 8.11759 93.8525 8.07144 93.8876C6.21141 95.4314 4.36176 96.995 2.4879 98.5124C1.37513 99.4126 0.806936 99.0439 0.848336 97.4226C0.909269 94.8846 1.03272 92.3505 1.42225 89.8163C1.46355 89.5566 1.51365 89.2983 1.58481 89.0494C1.73903 88.5051 2.01874 88.1926 2.30622 88.2564C2.70179 88.3496 2.81324 88.7546 2.81603 89.1908C2.81704 89.8082 2.77752 90.4252 2.72922 91.0409C2.61329 92.5353 2.47443 94.0322 2.3629 95.5273C2.34171 95.8023 2.40063 96.084 2.4301 96.4941L2.42382 96.5052Z" fill="white"/>
<path d="M11.0738 81.9894C11.1394 81.8606 11.2435 81.5746 11.4067 81.3706C12.1052 80.4953 12.8193 79.6345 13.5325 78.7797C13.6439 78.6462 13.7987 78.4953 13.9363 78.4809C14.148 78.454 14.4443 78.4346 14.5468 78.584C14.6527 78.7401 14.6278 79.1234 14.5576 79.3664C14.4836 79.633 14.3129 79.8842 14.1443 80.0934C13.4942 80.8917 12.8363 81.6827 12.167 82.4597C12.0129 82.6349 11.8141 82.7788 11.6213 82.8571C11.1693 83.0333 10.9222 82.7156 11.0685 81.9946L11.0738 81.9894Z" fill="white"/>
<path d="M38.6619 4.45752C38.8762 4.52791 39.0355 4.5472 39.1659 4.63451C39.5503 4.88324 39.5408 5.39612 39.1528 5.70959C39.0391 5.80044 38.9116 5.86488 38.7869 5.91161C37.8205 6.26019 36.8541 6.60876 35.8886 6.95143C35.6305 7.0435 35.3371 7.12998 35.2049 6.77007C35.0753 6.42267 35.2667 6.12633 35.4846 5.91892C36.4551 4.97794 37.5474 4.54653 38.661 4.46343L38.6619 4.45752Z" fill="white"/>
<path d="M5.60037 90.4015C5.64207 90.281 5.68496 90.0397 5.79857 89.8642C6.31923 89.0574 6.85309 88.2527 7.40424 87.4811C7.55615 87.2632 7.79415 87.0711 8.00616 87.014C8.20843 86.9615 8.50566 87.0208 8.61854 87.1901C8.73143 87.3593 8.6927 87.7163 8.66271 87.9899C8.64898 88.1329 8.53472 88.2842 8.43929 88.4022C7.85922 89.1571 7.27916 89.9121 6.68871 90.6472C6.53804 90.829 6.34713 90.9802 6.15494 91.0828C5.71748 91.3097 5.49774 91.0751 5.59502 90.4067L5.60037 90.4015Z" fill="white"/>
<path d="M32.6872 40.004C32.5165 39.8013 32.2952 39.633 32.1823 39.379C31.6475 38.2047 31.1438 37.005 30.6348 35.8106C30.5753 35.674 30.525 35.5087 30.5362 35.3531C30.5505 35.1497 30.588 34.8288 30.6935 34.7609C30.8452 34.6579 31.0962 34.6676 31.2496 34.7525C31.423 34.8527 31.5548 35.0734 31.6674 35.2728C32.2907 36.4007 32.5941 37.7259 32.9188 39.0302C32.9789 39.2757 32.9072 39.5851 32.8938 39.8674C32.8238 39.9107 32.7538 39.954 32.6828 40.0033L32.6872 40.004Z" fill="white"/>
<path d="M28.8591 61.9492C28.9468 61.5395 29.0082 61.1257 29.1213 60.7261C29.4116 59.6951 29.7185 58.6728 30.0254 57.6505C30.11 57.3735 30.2079 57.0986 30.3101 56.8244C30.4331 56.505 30.6129 56.225 30.9202 56.3344C31.2064 56.4344 31.2755 56.7661 31.2298 57.1098C31.166 57.5959 31.1503 58.1199 30.9778 58.5524C30.5876 59.5312 30.1387 60.4825 29.6706 61.4126C29.5313 61.693 29.2546 61.8729 29.0374 62.1046C28.978 62.0528 28.9186 62.001 28.8635 61.9499L28.8591 61.9492Z" fill="white"/>
<path d="M32.139 51.5903C32.0938 51.1656 32.0223 50.7367 32.0185 50.3064C32.0127 49.0104 32.0298 47.7121 32.0425 46.413C32.0461 46.22 32.0331 46.0182 32.072 45.8307C32.1619 45.379 32.4671 45.246 32.7098 45.563C32.8255 45.7145 32.9231 45.9237 32.9712 46.1311C33.3266 47.7247 33.1664 49.3271 32.6962 50.9225C32.6197 51.1766 32.4458 51.391 32.3184 51.6249C32.2612 51.6158 32.1997 51.606 32.1425 51.5969L32.139 51.5903Z" fill="white"/>
<path d="M17.6006 76.141C17.1394 76.0919 17.0132 75.8358 17.1559 75.3925C17.2158 75.2145 17.3014 75.0163 17.4154 74.8952C18.0706 74.2067 18.7327 73.5313 19.4096 72.8765C19.5474 72.7471 19.7597 72.6599 19.9234 72.6799C20.1056 72.6967 20.3601 72.7977 20.4237 72.9652C20.4916 73.1333 20.435 73.5177 20.3164 73.6682C19.6497 74.5426 18.9663 75.4082 18.0905 75.9527C17.9052 76.0684 17.6926 76.1012 17.5918 76.1396L17.6006 76.141Z" fill="white"/>
<path d="M23.1754 70.4922C23.3906 70.0181 23.5088 69.6435 23.7046 69.3479C24.2924 68.4308 24.896 67.5282 25.5221 66.6535C25.7133 66.3874 25.9745 66.1627 26.2358 66.0227C26.6017 65.8207 26.8472 66.12 26.7614 66.6025C26.7417 66.7265 26.6972 66.8646 26.6353 66.9698C25.8932 68.2617 25.0718 69.4564 23.9512 70.2645C23.834 70.3488 23.7119 70.408 23.5862 70.4607C23.5137 70.4915 23.4345 70.4789 23.1744 70.4981L23.1754 70.4922Z" fill="white"/>
<path d="M30.6656 13.0799C30.6716 12.6451 30.607 12.3141 30.6942 12.0496C31.0074 11.1009 31.3549 10.1638 31.7313 9.24327C31.8433 8.96455 32.0652 8.70332 32.2775 8.53133C32.6452 8.23277 32.9415 8.4675 32.9372 9.00539C32.9259 10.0687 31.6799 12.4303 30.67 13.0806L30.6656 13.0799Z" fill="white"/>
<path d="M28.9865 20.9155C28.4963 20.311 28.6448 19.5479 28.677 18.8632C28.7027 18.2198 28.8474 17.565 28.9629 16.9238C29.0021 16.7061 29.088 16.4777 29.2016 16.3021C29.4709 15.885 29.8554 15.9341 29.9874 16.4089C30.0453 16.6118 30.0659 16.8511 30.0399 17.0708C29.917 18.0135 29.7819 18.9481 29.6239 19.8852C29.5572 20.3043 29.4334 20.7142 28.9855 20.9214L28.9865 20.9155Z" fill="white"/>
<path d="M29.5413 29.9842C29.3825 29.7351 29.2527 29.5873 29.1866 29.4074C28.8577 28.4413 28.635 27.4316 28.6032 26.3554C28.6035 26.3252 28.595 26.2936 28.6006 26.2582C28.6174 25.8977 28.5976 25.4831 28.9522 25.3519C29.336 25.2072 29.5228 25.5637 29.6374 25.9208C29.9792 27.0039 30.1012 28.1368 29.8437 29.3304C29.7986 29.5289 29.6762 29.7031 29.5404 29.9901L29.5413 29.9842Z" fill="white"/>
<path d="M45.7963 5.36216C44.9457 6.03173 42.9967 5.95171 42.1462 5.25969C42.6223 4.59108 43.256 4.57687 43.7978 4.57229C44.4833 4.57239 45.2523 4.50104 45.7972 5.35626L45.7963 5.36216Z" fill="white"/>
</svg>
